<svg version="1.1" xmlns="http://www.w3.org/2000/svg" xmlns:xlink="http://www.w3.org/1999/xlink" width="40.04365" height="55.10312" viewBox="0,0,40.04365,55.10312"><g transform="translate(-299.97818,-152.44844)"><g stroke="none" stroke-width="0.5" stroke-miterlimit="10"><path d="M308.55921,162.35786c-1.38675,2.08013 -3.46688,0.69338 -3.46688,0.69338l-0.11325,-0.08176c0,3.66721 0,7.33442 0,11.00163c0,1.86654 -0.35015,3.76026 -0.03228,5.59954c0.17951,1.0387 0.83216,1.95936 1,3c0.47242,2.92918 0.03228,6.42654 0.03228,9.40046c0,3.19986 -0.0118,6.39974 -0.03228,9.59954c-0.00293,0.45744 -0.40034,1.14058 -0.00594,1.37235c0.46239,0.27173 1.00489,-0.41523 1.53822,-0.47189c3.97627,-0.42246 7.34622,-1.58397 11.20943,-2.87171c1.89508,-0.63169 3.89986,-0.99208 5.69219,-1.87408c1.8424,-0.90664 3.02125,-2.82776 4.78405,-3.88084c0.79629,-0.4757 2.01855,-0.10802 2.67632,-0.76201c0.86881,-0.86381 0.8803,-2.29545 1.47573,-3.36618c0.49219,-0.88507 1.40156,-1.52614 1.76955,-2.46964c1.20716,-3.09506 -4.04666,-7.94034 -5.4959,-9.63754c-2.74583,-3.21563 -6.34343,-5.57004 -9.40736,-8.44278c-2.41186,-2.26136 -4.27465,-5.07566 -6.74977,-7.26761c-2.30646,-2.04259 -5.24972,-3.29047 -7.96333,-4.63737c0.01754,0.08988 0.03509,0.17975 0.05264,0.26963l2.34321,1.36c0,0 2.08013,1.38675 0.69338,3.46688zM304.49485,153.4288c1.17024,-1.65978 3.10229,-0.69375 3.10229,-0.69375c3.40125,1.70525 6.21766,2.85698 9.13781,5.40878c2.52912,2.21009 4.41518,5.07824 6.86688,7.37391c3.20939,3.00514 6.87871,5.45896 9.76591,8.81537c2.46551,2.86621 5.96422,6.33363 6.57908,10.23755c0.41462,2.63251 -0.96427,5.35238 -2.30544,7.65527c-0.8852,1.51994 -1.28306,3.38755 -2.52427,4.63382c-0.83428,0.83768 -2.31105,0.62783 -3.32368,1.23799c-1.89759,1.14339 -3.23921,3.11882 -5.21595,4.11916c-0.17572,0.08892 -5.94052,2.00349 -6.30781,2.12592c-4.19532,1.39844 -8.29481,3.37967 -12.79057,3.12829c-1.49323,-0.08349 -3.28737,0.45409 -4.46178,-0.47189c-3.64152,-2.87121 -2.03822,-11.19404 -2.03822,-15.02811c0,-2.68095 0.4882,-5.96145 0.03228,-8.59954c-0.17951,-1.0387 -0.83216,-1.95936 -1,-3c-0.04177,-0.25902 -0.03228,-5.92044 -0.03228,-6.40046c0,-5.66667 0,-13.33333 0,-19c0,0 0,-0.06063 0.00944,-0.163c0.01866,-0.50534 0.16468,-1.16268 0.70433,-1.66138c0.32401,-0.33611 0.79512,-0.60142 1.48009,-0.66239c0.6793,-0.10698 1.20069,0.03615 1.59655,0.28364c0.3181,0.17419 0.55254,0.40913 0.72533,0.66082z" fill="#9966ff"/><path d="M305.0594,163.01361c0,0 2.08593,1.38238 3.47268,-0.69775c1.38675,-2.08012 -0.64139,-3.38149 -0.64139,-3.38149l-2.34105,-1.36131c-0.01754,-0.08988 -0.08897,-0.26399 -0.10652,-0.35387c2.7136,1.3469 5.6667,2.58994 7.97316,4.63253c2.47512,2.19194 4.35559,5.00326 6.76746,7.26462c3.06394,2.87273 6.70921,5.26436 9.45505,8.47999c1.44924,1.69719 6.69992,6.57662 5.49277,9.67168c-0.36799,0.9435 -1.28202,1.59247 -1.77421,2.47754c-0.59543,1.07073 -0.61378,2.51007 -1.48259,3.37388c-0.65777,0.654 -1.88601,0.29098 -2.6823,0.76668c-1.7628,1.05308 -2.95736,2.98112 -4.79977,3.88776c-1.79233,0.882 -3.81255,1.24373 -5.70763,1.87542c-3.86321,1.28773 -7.25421,2.44296 -11.23048,2.86541c-0.53333,0.05666 -1.07761,0.74257 -1.54001,0.47084c-0.39439,-0.23177 0.00184,-0.91566 0.00477,-1.3731c0.02048,-3.1998 0.0215,-6.40925 0.0215,-9.60912c0,-2.97392 0.42912,-6.49497 -0.0433,-9.42414c-0.16784,-1.04064 -0.82119,-1.97168 -1.0007,-3.01038c-0.31787,-1.83928 0.03597,-3.75007 0.03597,-5.61662c0,-3.66721 0.0133,-7.35307 0.0133,-11.02028l0.1133,0.08171z" fill="#000000"/></g></g></svg>