<svg version="1.1" xmlns="http://www.w3.org/2000/svg" xmlns:xlink="http://www.w3.org/1999/xlink" width="136.84616" height="37.84616" viewBox="0,0,136.84616,37.84616"><g transform="translate(-251.57692,-161.07692)"><g fill="#e1ff66" stroke="none" stroke-width="0" stroke-miterlimit="10"><path d="M251.57692,198.92308v-37.84616h136.84616v37.84616zM258.36933,171.25083c-1.68307,1.78952 -2.71425,4.19919 -2.71425,6.8497c0,1.18783 0.2071,2.32728 0.58716,3.38423c-0.43102,0.75428 -1.42322,1.4039 -1.29305,2.26283c0.19733,1.30203 3.40634,7.96425 5,8.75c1.53578,0.75721 8.13309,2.23813 10.45808,1.65688c7.02335,-1.75584 21.98788,-0.14473 28.95369,-0.23041c2.79382,-0.03436 5.38989,-0.89284 8.11765,-1.05882c12.67462,-0.77126 27.50924,0.25199 40.47299,0.63295c4.05066,0.11903 8.41715,-0.03229 12.46819,0.07293c6.80387,0.17672 14.90317,1.41874 20.79013,-2.89132c0.16925,-0.12391 2.46217,-1.56998 2.59513,-2.2244c0.32953,-1.62192 1.19607,-6.1798 1.32411,-8.03115c1.05477,-15.25164 -22.57878,-10.85569 -30.99841,-12.2213c-3.30626,-0.53625 -6.56859,-0.98076 -9.94625,-0.98478c-21.145,-0.02516 -43.87459,-0.46606 -65.013,0.06207c-5.60221,0.13997 -15.11673,-0.82313 -19.88687,3.01133c-0.35205,0.283 -0.65313,0.60589 -0.91529,0.95925z"/></g></g></svg>